HIERARCHY
ROOT Hips
{
	OFFSET 0.00000 0.00000 0.00000
	CHANNELS 6 Xposition Yposition Zposition Zrotation Yrotation Xrotation 
	JOINT LHipJoint
	{
		OFFSET 0 0 0
		CHANNELS 3 Zrotation Yrotation Xrotation
		JOINT LeftUpLeg
		{
			OFFSET 1.55020 -1.87941 0.79896
			CHANNELS 3 Zrotation Yrotation Xrotation
			JOINT LeftLeg
			{
				OFFSET 2.65269 -7.28822 0.00000
				CHANNELS 3 Zrotation Yrotation Xrotation
				JOINT LeftFoot
				{
					OFFSET 2.61200 -7.17641 0.00000
					CHANNELS 3 Zrotation Yrotation Xrotation
					JOINT LeftToeBase
					{
						OFFSET 0.09338 -0.25656 1.92461
						CHANNELS 3 Zrotation Yrotation Xrotation
						End Site
						{
							OFFSET 0.00000 -0.00000 0.98480
						}
					}
				}
			}
		}
	}
	JOINT RHipJoint
	{
		OFFSET 0 0 0
		CHANNELS 3 Zrotation Yrotation Xrotation
		JOINT RightUpLeg
		{
			OFFSET -1.56866 -1.87941 0.79895
			CHANNELS 3 Zrotation Yrotation Xrotation
			JOINT RightLeg
			{
				OFFSET -2.60199 -7.14892 0.00000
				CHANNELS 3 Zrotation Yrotation Xrotation
				JOINT RightFoot
				{
					OFFSET -2.62841 -7.22151 0.00000
					CHANNELS 3 Zrotation Yrotation Xrotation
					JOINT RightToeBase
					{
						OFFSET -0.19532 -0.53663 1.93132
						CHANNELS 3 Zrotation Yrotation Xrotation
						End Site
						{
							OFFSET -0.00000 -0.00000 1.00896
						}
					}
				}
			}
		}
	}
	JOINT LowerBack
	{
		OFFSET 0 0 0
		CHANNELS 3 Zrotation Yrotation Xrotation
		JOINT Spine
		{
			OFFSET 0.06381 2.07806 -0.22112
			CHANNELS 3 Zrotation Yrotation Xrotation
			JOINT Spine1
			{
				OFFSET -0.02881 2.08890 0.01825
				CHANNELS 3 Zrotation Yrotation Xrotation
				JOINT Neck
				{
					OFFSET 0 0 0
					CHANNELS 3 Zrotation Yrotation Xrotation
					JOINT Neck1
					{
						OFFSET 0.02418 1.74325 -0.02023
						CHANNELS 3 Zrotation Yrotation Xrotation
						JOINT Head
						{
							OFFSET -0.01704 1.71677 0.04090
							CHANNELS 3 Zrotation Yrotation Xrotation
							End Site
							{
								OFFSET -0.00946 1.78238 0.01684
							}
						}
					}
				}
				JOINT LeftShoulder
				{
					OFFSET 0 0 0
					CHANNELS 3 Zrotation Yrotation Xrotation
					JOINT LeftArm
					{
						OFFSET 3.39783 1.34157 0.16610
						CHANNELS 3 Zrotation Yrotation Xrotation
						JOINT LeftForeArm
						{
							OFFSET 5.15218 -0.00000 0.00000
							CHANNELS 3 Zrotation Yrotation Xrotation
							JOINT LeftHand
							{
								OFFSET 3.49459 -0.00000 0.00000
								CHANNELS 3 Zrotation Yrotation Xrotation
								JOINT LeftFingerBase
								{
									OFFSET 0 0 0
									CHANNELS 3 Zrotation Yrotation Xrotation
									JOINT LeftHandIndex1
									{
										OFFSET 0.51247 -0.00000 0.00000
										CHANNELS 3 Zrotation Yrotation Xrotation
										End Site
										{
											OFFSET 0.41316 -0.00000 0.00000
										}
									}
								}
								JOINT LThumb
								{
									OFFSET 0 0 0
									CHANNELS 3 Zrotation Yrotation Xrotation
									End Site
									{
										OFFSET 0.41947 -0.00000 0.41947
									}
								}
							}
						}
					}
				}
				JOINT RightShoulder
				{
					OFFSET 0 0 0
					CHANNELS 3 Zrotation Yrotation Xrotation
					JOINT RightArm
					{
						OFFSET -3.26224 1.05509 0.01188
						CHANNELS 3 Zrotation Yrotation Xrotation
						JOINT RightForeArm
						{
							OFFSET -5.44344 -0.00000 0.00000
							CHANNELS 3 Zrotation Yrotation Xrotation
							JOINT RightHand
							{
								OFFSET -3.58403 -0.00000 0.00000
								CHANNELS 3 Zrotation Yrotation Xrotation
								JOINT RightFingerBase
								{
									OFFSET 0 0 0
									CHANNELS 3 Zrotation Yrotation Xrotation
									JOINT RightHandIndex1
									{
										OFFSET -0.34249 -0.00000 0.00000
										CHANNELS 3 Zrotation Yrotation Xrotation
										End Site
										{
											OFFSET -0.27612 -0.00000 0.00000
										}
									}
								}
								JOINT RThumb
								{
									OFFSET 0 0 0
									CHANNELS 3 Zrotation Yrotation Xrotation
									End Site
									{
										OFFSET -0.28034 -0.00000 0.28034
									}
								}
							}
						}
					}
				}
			}
		}
	}
}
MOTION
Frames: 11
Frame Time: .0083333
41.2422 16.945 2.9638 0 0 0 0 0 0 -21 0 0 0 0 0 0 0 0 0 0 0 0 0 0 21 0 0 0 0 0 0 0 0 0 0 0 0 0 0 0 0 0 0 0 0 0 0 -16 0 0 21 0 0 11 0 0 0 -8 0 0 0 0 0 0 0 0 0 0 0 0 0 0 0 0 0 0 0 0 8 0 0 0 0 0 0 0 0 0 0 0 0 0 0 0 0 0
41.2422 16.9450 2.9638 39.2678 -88.5573 -41.8670 0.0000 0.0000 0.0000 -26.6817 -2.4011 -3.2277 3.2918 11.1531 32.7981 1.7633 -13.5950 -24.2550 0.9703 -6.2713 -17.5737 0.0000 0.0000 0.0000 19.3663 8.0368 -22.4069 -10.0125 -17.4169 59.5302 -1.1184 4.6204 -18.9861 -1.8266 8.4951 -24.2282 -0.8631 -0.3729 12.4001 -1.5781 -0.7815 2.0800 -1.0337 -0.4203 -4.7805 3.9480 1.7067 3.2394 -1.9221 2.3976 -1.2596 -1.2997 1.2014 -0.8616 -0.0000 0.0000 0.0000 -87.1263 6.6497 39.4709 28.9440 -39.9709 -10.7247 -0.0000 -0.0000 0.7001 15.2366 21.4570 5.6900 -7.1250 0.0000 -0.0000 -13.6748 51.6330 -2.2693 -0.0000 0.0000 0.0000 88.3665 -4.3011 19.3218 -8.8322 14.8927 -1.1566 0.0000 0.0000 28.7362 -19.3582 -33.2777 10.9115 7.1250 -0.0000 -0.0000 16.5019 -64.0747 -7.7295
41.1317 17.0006 2.9752 31.8183 -88.6549 -33.8413 0.0000 0.0000 0.0000 -26.4332 -2.2636 -2.8513 3.0550 10.7836 31.5534 1.6940 -13.6503 -23.8202 0.9918 -6.3383 -17.7693 0.0000 0.0000 0.0000 19.4547 8.4001 -24.0123 -9.6822 -17.2272 58.4207 -0.9866 4.1143 -17.8449 -2.7715 10.3157 -30.0051 -1.0018 -0.0382 10.8388 -1.1779 -0.3036 2.7730 -0.6154 -0.1881 -3.1869 4.1393 1.3942 2.9495 -2.7542 1.9565 -1.8774 -1.5960 0.9863 -1.0140 0.0000 -0.0000 0.0000 -87.6571 5.2561 39.9776 29.9951 -40.8892 -11.4064 -0.0000 -0.0000 0.1129 15.1397 22.6863 5.9574 -7.1250 0.0000 -0.0000 -14.2994 52.8288 -2.8004 0.0000 -0.0000 0.0000 87.7527 -3.8891 18.3562 -8.3759 14.1604 -1.0422 0.0000 0.0000 30.0230 -16.7170 -35.0897 9.7956 7.1250 -0.0000 -0.0000 21.2719 -65.0439 -10.5306
41.0104 17.0420 2.9864 19.0703 -88.9119 -20.4507 0.0000 0.0000 0.0000 -25.9786 -1.9666 -2.7138 2.8650 10.4732 30.5230 1.7001 -13.5903 -23.8487 1.2410 -7.0638 -19.9045 0.0000 0.0000 0.0000 19.7463 8.9027 -25.3875 -9.1460 -16.9008 56.5937 -0.8605 3.7891 -16.6616 -3.2123 11.0310 -32.3845 -0.6207 -0.0638 10.5708 -0.9789 -0.2766 2.6018 -0.6275 -0.1722 -3.2178 4.0786 1.4250 2.7991 -3.1256 1.9803 -1.8689 -1.7030 1.0029 -0.9827 0.0000 -0.0000 0.0000 -87.9823 5.3839 39.6264 31.5498 -42.1853 -12.4374 -0.0000 0.0000 -0.4298 16.3520 23.0939 6.5650 -7.1250 0.0000 -0.0000 -13.2810 53.4496 -2.7985 0.0000 -0.0000 0.0000 87.3067 -4.5118 18.3707 -8.0085 13.5667 -0.9541 0.0000 0.0000 28.7752 -14.4742 -34.7702 8.3745 7.1250 -0.0000 -0.0000 23.4392 -64.1398 -11.1656
40.8816 17.0802 2.9964 -1.4516 -89.1045 0.6910 0.0000 0.0000 0.0000 -25.4916 -1.6053 -2.5198 2.6698 10.1402 29.4320 1.6313 -13.8624 -23.4528 1.2549 -7.1018 -20.0174 0.0000 0.0000 0.0000 20.0176 9.5183 -26.6757 -8.5616 -16.5172 54.5611 -0.7134 3.7702 -15.1261 -2.7970 10.3589 -30.1471 -0.1389 -0.1935 10.5237 -0.8376 -0.3821 2.3270 -0.7382 -0.2232 -3.4801 3.7894 1.4274 2.7347 -3.1574 1.9709 -1.7462 -1.6596 1.0006 -0.9349 0.0000 -0.0000 0.0000 -88.1681 5.8218 39.2275 33.3177 -43.5728 -13.6405 -0.0000 0.0000 -1.0533 17.5074 24.0473 7.3246 -7.1250 0.0000 -0.0000 -12.5531 54.6139 -3.0003 0.0000 -0.0000 0.0000 86.9158 -5.3028 19.4988 -7.6962 13.0592 -0.8822 0.0000 0.0000 26.6729 -13.8038 -35.2115 8.0632 7.1250 -0.0000 -0.0000 24.6445 -64.3527 -11.8952
40.7531 17.1157 3.0019 -12.4251 -89.0153 12.2855 0.0000 0.0000 0.0000 -25.2188 -1.3405 -2.3266 2.4898 9.8193 28.3935 1.4904 -14.3198 -22.6205 1.0576 -6.5388 -18.3559 0.0000 0.0000 0.0000 20.0509 9.9587 -27.9307 -7.8803 -16.0305 52.1305 -0.7203 4.0591 -15.1752 -1.9939 8.8534 -25.3379 -0.0656 -0.2044 10.0435 -0.6386 -0.3754 2.3775 -0.5759 -0.2185 -3.1614 3.7558 1.4212 2.7081 -3.3732 1.9476 -2.1889 -1.7280 0.9906 -1.0698 -0.0000 0.0000 0.0000 -88.3328 5.6798 39.3248 35.0679 -44.8605 -14.8612 -0.0000 0.0000 -2.0075 17.8934 24.2839 7.5635 -7.1250 0.0000 -0.0000 -12.2702 54.9249 -3.0246 -0.0000 0.0000 0.0000 86.5156 -5.5913 19.6685 -7.3662 12.5203 -0.8092 0.0000 0.0000 25.6201 -12.5416 -36.1235 7.4714 7.1250 -0.0000 -0.0000 27.0455 -64.8078 -13.4178
40.6240 17.1466 3.0035 -18.8440 -88.7589 19.2480 0.0000 0.0000 0.0000 -24.9297 -1.0986 -2.0322 2.3114 9.4867 27.3300 1.3351 -14.6476 -21.6509 0.8213 -5.7823 -16.1540 0.0000 0.0000 0.0000 20.0811 10.2491 -29.0333 -7.1479 -15.4551 49.4313 -0.6642 3.0947 -14.6546 -2.4694 9.7821 -28.2740 0.0454 -0.3016 10.2833 -0.4626 -0.4810 2.1362 -0.4406 -0.2689 -3.5449 3.7338 1.5252 2.7446 -3.4951 2.0755 -2.6034 -1.7714 1.0555 -1.2019 0.0000 -0.0000 0.0000 -88.3896 5.8886 39.5534 36.7171 -46.0000 -16.0362 -0.0000 0.0000 -2.7554 18.4927 23.8742 7.7089 -7.1250 0.0000 -0.0000 -11.4716 54.6310 -2.7413 0.0000 -0.0000 0.0000 86.2104 -6.1783 18.8435 -7.0086 11.9334 -0.7334 0.0000 0.0000 26.1926 -11.1624 -36.1807 6.6443 7.1250 -0.0000 -0.0000 28.5960 -64.4781 -14.0278
40.4969 17.1708 3.0014 -17.2334 -88.2149 18.0868 0.0000 0.0000 0.0000 -24.6837 -1.0565 -1.5444 2.1327 9.1371 26.2253 1.1466 -15.0086 -20.4377 0.5360 -4.6911 -13.0297 0.0000 0.0000 0.0000 19.9914 10.2744 -29.9986 -6.4022 -14.8071 46.5753 -0.7334 3.5130 -15.3710 -1.2603 7.1166 -20.0612 0.1858 -0.5180 10.3681 -0.3262 -0.7477 2.1556 -0.3423 -0.4020 -3.5737 3.6734 1.6597 2.8737 -3.5686 2.2353 -3.5140 -1.8025 1.1353 -1.5087 -0.0000 -0.0000 0.0000 -88.3187 5.6208 39.9390 37.9979 -46.8380 -16.9641 -0.0000 0.0000 -3.4562 19.5265 22.6197 7.7671 -7.1250 0.0000 -0.0000 -9.8934 53.5589 -2.0983 -0.0000 -0.0000 0.0000 85.9703 -6.3281 17.0432 -6.6361 11.3187 -0.6583 0.0000 0.0000 28.6152 -9.8710 -35.3816 5.7533 7.1250 -0.0000 -0.0000 29.0485 -63.4478 -13.5728
40.3653 17.1920 2.9951 -12.3176 -87.6293 13.6289 0.0000 0.0000 0.0000 -24.5661 -0.9966 -1.0312 1.9536 8.7688 25.0748 0.9930 -15.3897 -19.4524 0.4000 -4.0608 -11.2478 0.0000 0.0000 0.0000 19.6983 10.2727 -30.9019 -5.6787 -14.1096 43.6783 -0.7582 3.4628 -15.6439 -1.0096 6.3934 -17.9301 0.1932 -0.7175 10.4766 -0.2495 -1.0091 2.1904 -0.2310 -0.5318 -3.5983 3.7626 1.6202 2.8671 -3.7262 2.1633 -4.1972 -1.8790 1.0982 -1.7290 0.0000 -0.0000 0.0000 -88.0876 5.2492 40.6293 39.0190 -47.4779 -17.7128 -0.0000 0.0000 -4.0889 21.4799 20.7849 7.9493 -7.1250 0.0000 -0.0000 -7.2687 52.0266 -1.2630 0.0000 -0.0000 0.0000 85.8147 -6.5193 14.8895 -6.4033 10.9331 -0.6134 0.0000 0.0000 31.7156 -8.4815 -34.8611 4.8719 7.1250 -0.0000 -0.0000 29.9254 -62.6424 -13.4552
40.2179 17.2085 2.9878 -11.1893 -87.3631 12.8952 0.0000 0.0000 0.0000 -24.4335 -0.7139 -0.4194 1.7740 8.3785 23.8696 0.8821 -15.7396 -18.7572 0.3186 -3.6284 -10.0334 0.0000 0.0000 0.0000 19.4551 10.5435 -31.5753 -5.0037 -13.3879 40.8386 -0.7054 3.1809 -15.1069 -0.9964 6.3526 -17.8111 0.2205 -0.7717 10.5904 -0.2003 -1.0775 2.2392 -0.1849 -0.5664 -3.6104 3.9489 1.6409 2.8788 -3.8626 2.1761 -4.8736 -1.9687 1.1010 -1.9485 0.0000 -0.0000 0.0000 -87.7446 4.8206 41.5113 39.7872 -47.9433 -18.2811 -0.0000 0.0000 -4.3048 22.9126 19.1627 7.8990 -7.1250 0.0000 -0.0000 -5.3648 50.5734 -0.7387 0.0000 -0.0000 0.0000 85.7729 -6.8337 12.8286 -6.3179 10.7912 -0.5973 0.0000 0.0000 34.7238 -7.6684 -34.5675 4.3686 7.1250 -0.0000 -0.0000 30.4482 -62.1864 -13.3861
40.0587 17.2170 2.9787 -10.0195 -87.2031 12.0491 0.0000 0.0000 0.0000 -24.3337 -0.3408 0.3598 1.5868 7.9465 22.5516 0.7452 -16.1022 -17.8636 0.2125 -2.9677 -8.1887 0.0000 0.0000 0.0000 19.1623 10.8516 -32.1134 -4.3993 -12.6736 38.1586 -0.5703 2.9753 -13.5595 -0.8188 5.7740 -16.1300 0.2492 -0.7974 10.7837 -0.1844 -1.1094 2.2728 -0.1774 -0.5832 -3.6825 4.1493 1.7134 2.8256 -3.9741 2.2607 -5.3864 -2.0513 1.1382 -2.1012 0.0000 0.0000 0.0000 -87.3836 4.3401 42.3834 40.1485 -48.1577 -18.5498 -0.0000 0.0000 -4.1399 23.9972 16.9503 7.3949 -7.1250 0.0000 -0.0000 -3.7760 48.3930 -0.3165 0.0000 0.0000 0.0000 85.7974 -7.2055 10.3860 -6.2760 10.7217 -0.5895 0.0000 0.0000 38.7687 -7.2729 -33.9916 4.0811 7.1250 -0.0000 -0.0000 30.2509 -61.5992 -12.8695
